<mxfile host="app.diagrams.net" agent="Mozilla/5.0 (Windows NT 10.0; Win64; x64; rv:131.0) Gecko/20100101 Firefox/131.0" version="24.8.0">
  <diagram name="Page-1" id="7P3Eh6vX80orw_PPyLPd">
    <mxGraphModel dx="1434" dy="754" grid="1" gridSize="10" guides="1" tooltips="1" connect="1" arrows="1" fold="1" page="1" pageScale="1" pageWidth="1169" pageHeight="827" math="0" shadow="0">
      <root>
        <mxCell id="0" />
        <mxCell id="1" parent="0" />
        <mxCell id="RbGLpRVcjz3CA3Kn4k5E-1" value="Pen-tester / Red-teamer" style="shape=umlActor;verticalLabelPosition=bottom;verticalAlign=top;html=1;outlineConnect=0;" vertex="1" parent="1">
          <mxGeometry x="70" y="220" width="30" height="70" as="geometry" />
        </mxCell>
        <mxCell id="RbGLpRVcjz3CA3Kn4k5E-2" value="Wi-Fi" style="swimlane;whiteSpace=wrap;html=1;" vertex="1" parent="1">
          <mxGeometry x="255" y="20" width="660" height="470" as="geometry" />
        </mxCell>
        <mxCell id="RbGLpRVcjz3CA3Kn4k5E-4" value="Capture Data" style="ellipse;whiteSpace=wrap;html=1;" vertex="1" parent="RbGLpRVcjz3CA3Kn4k5E-2">
          <mxGeometry x="265" y="130" width="130" height="60" as="geometry" />
        </mxCell>
        <mxCell id="RbGLpRVcjz3CA3Kn4k5E-7" value="CRUD Log" style="ellipse;whiteSpace=wrap;html=1;" vertex="1" parent="RbGLpRVcjz3CA3Kn4k5E-2">
          <mxGeometry x="415" y="60" width="130" height="60" as="geometry" />
        </mxCell>
        <mxCell id="RbGLpRVcjz3CA3Kn4k5E-12" value="" style="endArrow=classic;html=1;rounded=0;dashed=1;entryX=0.5;entryY=0;entryDx=0;entryDy=0;exitX=0;exitY=0.5;exitDx=0;exitDy=0;" edge="1" parent="RbGLpRVcjz3CA3Kn4k5E-2" source="RbGLpRVcjz3CA3Kn4k5E-7" target="RbGLpRVcjz3CA3Kn4k5E-4">
          <mxGeometry width="50" height="50" relative="1" as="geometry">
            <mxPoint x="310" y="320" as="sourcePoint" />
            <mxPoint x="360" y="270" as="targetPoint" />
          </mxGeometry>
        </mxCell>
        <mxCell id="RbGLpRVcjz3CA3Kn4k5E-13" value="&lt;div&gt;&amp;lt;extends&amp;gt;&lt;/div&gt;" style="edgeLabel;html=1;align=center;verticalAlign=middle;resizable=0;points=[];" vertex="1" connectable="0" parent="RbGLpRVcjz3CA3Kn4k5E-12">
          <mxGeometry x="-0.4528" y="3" relative="1" as="geometry">
            <mxPoint x="11" y="14" as="offset" />
          </mxGeometry>
        </mxCell>
        <mxCell id="RbGLpRVcjz3CA3Kn4k5E-15" value="Perform de-authentication attack" style="ellipse;whiteSpace=wrap;html=1;" vertex="1" parent="RbGLpRVcjz3CA3Kn4k5E-2">
          <mxGeometry x="265" y="205" width="130" height="60" as="geometry" />
        </mxCell>
        <mxCell id="RbGLpRVcjz3CA3Kn4k5E-25" value="Poison address resolution protocol" style="ellipse;whiteSpace=wrap;html=1;" vertex="1" parent="RbGLpRVcjz3CA3Kn4k5E-2">
          <mxGeometry x="265" y="290" width="130" height="60" as="geometry" />
        </mxCell>
        <mxCell id="RbGLpRVcjz3CA3Kn4k5E-3" value="Target Network" style="shape=umlActor;verticalLabelPosition=bottom;verticalAlign=top;html=1;outlineConnect=0;" vertex="1" parent="1">
          <mxGeometry x="1040" y="220" width="30" height="70" as="geometry" />
        </mxCell>
        <mxCell id="RbGLpRVcjz3CA3Kn4k5E-8" value="" style="endArrow=none;html=1;rounded=0;exitX=0.5;exitY=0.5;exitDx=0;exitDy=0;exitPerimeter=0;entryX=0;entryY=0.5;entryDx=0;entryDy=0;" edge="1" parent="1" source="RbGLpRVcjz3CA3Kn4k5E-1" target="RbGLpRVcjz3CA3Kn4k5E-4">
          <mxGeometry width="50" height="50" relative="1" as="geometry">
            <mxPoint x="560" y="350" as="sourcePoint" />
            <mxPoint x="610" y="300" as="targetPoint" />
          </mxGeometry>
        </mxCell>
        <mxCell id="RbGLpRVcjz3CA3Kn4k5E-9" value="" style="endArrow=none;html=1;rounded=0;exitX=1;exitY=0.5;exitDx=0;exitDy=0;entryX=0.5;entryY=0.5;entryDx=0;entryDy=0;entryPerimeter=0;" edge="1" parent="1" source="RbGLpRVcjz3CA3Kn4k5E-4" target="RbGLpRVcjz3CA3Kn4k5E-3">
          <mxGeometry width="50" height="50" relative="1" as="geometry">
            <mxPoint x="560" y="350" as="sourcePoint" />
            <mxPoint x="610" y="300" as="targetPoint" />
          </mxGeometry>
        </mxCell>
        <mxCell id="RbGLpRVcjz3CA3Kn4k5E-16" value="" style="endArrow=none;html=1;rounded=0;entryX=0;entryY=0.5;entryDx=0;entryDy=0;" edge="1" parent="1" source="RbGLpRVcjz3CA3Kn4k5E-1" target="RbGLpRVcjz3CA3Kn4k5E-15">
          <mxGeometry width="50" height="50" relative="1" as="geometry">
            <mxPoint x="560" y="350" as="sourcePoint" />
            <mxPoint x="610" y="300" as="targetPoint" />
          </mxGeometry>
        </mxCell>
        <mxCell id="RbGLpRVcjz3CA3Kn4k5E-17" value="" style="endArrow=none;html=1;rounded=0;entryX=0.5;entryY=0.5;entryDx=0;entryDy=0;entryPerimeter=0;exitX=1;exitY=0.5;exitDx=0;exitDy=0;" edge="1" parent="1" source="RbGLpRVcjz3CA3Kn4k5E-15" target="RbGLpRVcjz3CA3Kn4k5E-3">
          <mxGeometry width="50" height="50" relative="1" as="geometry">
            <mxPoint x="560" y="350" as="sourcePoint" />
            <mxPoint x="610" y="300" as="targetPoint" />
          </mxGeometry>
        </mxCell>
        <mxCell id="RbGLpRVcjz3CA3Kn4k5E-26" value="" style="endArrow=none;html=1;rounded=0;entryX=0.5;entryY=0.5;entryDx=0;entryDy=0;entryPerimeter=0;exitX=0;exitY=0.5;exitDx=0;exitDy=0;" edge="1" parent="1" source="RbGLpRVcjz3CA3Kn4k5E-25" target="RbGLpRVcjz3CA3Kn4k5E-1">
          <mxGeometry width="50" height="50" relative="1" as="geometry">
            <mxPoint x="560" y="350" as="sourcePoint" />
            <mxPoint x="610" y="300" as="targetPoint" />
          </mxGeometry>
        </mxCell>
        <mxCell id="RbGLpRVcjz3CA3Kn4k5E-27" value="" style="endArrow=none;html=1;rounded=0;exitX=1;exitY=0.5;exitDx=0;exitDy=0;" edge="1" parent="1" source="RbGLpRVcjz3CA3Kn4k5E-25" target="RbGLpRVcjz3CA3Kn4k5E-3">
          <mxGeometry width="50" height="50" relative="1" as="geometry">
            <mxPoint x="560" y="350" as="sourcePoint" />
            <mxPoint x="610" y="300" as="targetPoint" />
          </mxGeometry>
        </mxCell>
      </root>
    </mxGraphModel>
  </diagram>
</mxfile>
